<svg width="21" height="20" viewBox="0 0 21 20" fill="none" xmlns="http://www.w3.org/2000/svg">
<g id="Group 33861">
<path id="Vector" d="M11.5444 2C13.4009 2 15.1814 2.7375 16.4942 4.05025C17.8069 5.36301 18.5444 7.14348 18.5444 9C18.5444 9.26522 18.6498 9.51957 18.8373 9.70711C19.0249 9.89464 19.2792 10 19.5444 10C19.8096 10 20.064 9.89464 20.2515 9.70711C20.4391 9.51957 20.5444 9.26522 20.5444 9C20.5444 6.61305 19.5962 4.32387 17.9084 2.63604C16.2206 0.948211 13.9314 0 11.5444 0C11.2792 0 11.0249 0.105357 10.8373 0.292893C10.6498 0.48043 10.5444 0.734784 10.5444 1C10.5444 1.26522 10.6498 1.51957 10.8373 1.70711C11.0249 1.89464 11.2792 2 11.5444 2ZM20.2944 13.91C20.2394 13.7495 20.1445 13.6056 20.0185 13.4919C19.8926 13.3781 19.7397 13.2984 19.5744 13.26L13.5744 11.89C13.4116 11.8531 13.2421 11.8575 13.0813 11.9029C12.9206 11.9484 12.7739 12.0333 12.6544 12.15C12.5144 12.28 12.5044 12.29 11.8544 13.53C9.69763 12.5362 7.96943 10.8009 6.98443 8.64C8.25443 8 8.26443 8 8.39443 7.85C8.51114 7.73056 8.59608 7.58379 8.6415 7.42308C8.68691 7.26238 8.69136 7.09286 8.65443 6.93L7.28443 1C7.24608 0.834696 7.16629 0.681871 7.05258 0.555912C6.93886 0.429952 6.79497 0.335002 6.63443 0.28C6.4009 0.196589 6.15974 0.1363 5.91443 0.0999999C5.66168 0.0413952 5.40377 0.00789934 5.14443 0C3.92444 0 2.75441 0.484642 1.89174 1.34731C1.02908 2.20998 0.544434 3.38 0.544434 4.6C0.549726 8.68271 2.17392 12.5967 5.06083 15.4836C7.94775 18.3705 11.8617 19.9947 15.9444 20C16.5485 20 17.1467 19.881 17.7048 19.6498C18.2629 19.4187 18.77 19.0798 19.1971 18.6527C19.6243 18.2255 19.9631 17.7184 20.1943 17.1603C20.4254 16.6022 20.5444 16.0041 20.5444 15.4C20.5447 15.1455 20.5247 14.8913 20.4844 14.64C20.4424 14.3916 20.3788 14.1474 20.2944 13.91Z" fill="#896AEE"/>
<path id="Vector_2" d="M11.5444 6C12.3401 6 13.1031 6.31607 13.6658 6.87868C14.2284 7.44129 14.5444 8.20435 14.5444 9C14.5444 9.26522 14.6498 9.51957 14.8373 9.70711C15.0249 9.89464 15.2792 10 15.5444 10C15.8096 10 16.064 9.89464 16.2515 9.70711C16.4391 9.51957 16.5444 9.26522 16.5444 9C16.5444 7.67392 16.0176 6.40215 15.08 5.46447C14.1423 4.52678 12.8705 4 11.5444 4C11.2792 4 11.0249 4.10536 10.8373 4.29289C10.6498 4.48043 10.5444 4.73478 10.5444 5C10.5444 5.26522 10.6498 5.51957 10.8373 5.70711C11.0249 5.89464 11.2792 6 11.5444 6Z" fill="#896AEE"/>
</g>
</svg>
