<svg width="20" height="20" viewBox="0 0 20 20" fill="none" xmlns="http://www.w3.org/2000/svg">
<path d="M16.8744 17.5C16.7923 17.5001 16.711 17.484 16.6352 17.4526C16.5594 17.4211 16.4905 17.375 16.4326 17.3168L2.68263 3.5668C2.57037 3.44864 2.50871 3.2913 2.51079 3.12832C2.51288 2.96534 2.57855 2.80963 2.6938 2.69438C2.80905 2.57913 2.96476 2.51346 3.12774 2.51137C3.29072 2.50929 3.44806 2.57095 3.56622 2.68321L17.3162 16.4332C17.4036 16.5206 17.4631 16.632 17.4871 16.7532C17.5112 16.8744 17.4989 17 17.4516 17.1141C17.4043 17.2283 17.3242 17.3259 17.2215 17.3946C17.1188 17.4633 16.998 17.5 16.8744 17.5ZM9.68693 12.3379L7.66388 10.3149C7.65229 10.3034 7.63739 10.2958 7.62127 10.2932C7.60515 10.2906 7.58862 10.2931 7.57401 10.3004C7.5594 10.3077 7.54744 10.3194 7.53981 10.3338C7.53217 10.3482 7.52926 10.3647 7.53146 10.3809C7.61313 10.9057 7.85957 11.391 8.23517 11.7666C8.61076 12.1422 9.09606 12.3886 9.62091 12.4703C9.63709 12.4725 9.65355 12.4696 9.66798 12.462C9.68241 12.4543 9.69409 12.4424 9.70137 12.4278C9.70866 12.4132 9.71118 12.3966 9.70859 12.3805C9.706 12.3644 9.69842 12.3495 9.68693 12.3379ZM10.3119 7.66212L12.3381 9.68751C12.3497 9.69916 12.3646 9.70688 12.3808 9.70956C12.397 9.71225 12.4136 9.70976 12.4283 9.70245C12.443 9.69514 12.4551 9.68338 12.4627 9.66885C12.4704 9.65432 12.4732 9.63775 12.4709 9.62149C12.3894 9.09592 12.1428 8.60992 11.7668 8.23385C11.3907 7.85778 10.9047 7.61116 10.3791 7.52969C10.3628 7.52718 10.3462 7.52988 10.3315 7.5374C10.3169 7.54492 10.305 7.55687 10.2975 7.57156C10.2901 7.58624 10.2875 7.60291 10.29 7.61917C10.2926 7.63543 10.3003 7.65047 10.3119 7.66212Z" fill="#8D9496"/>
<path d="M19.1797 10.6781C19.309 10.4751 19.3774 10.2393 19.3767 9.99865C19.376 9.75797 19.3063 9.52255 19.1758 9.32031C18.1422 7.72187 16.8012 6.36406 15.298 5.39336C13.6328 4.31836 11.7969 3.75 9.9875 3.75C9.03363 3.75131 8.08625 3.90683 7.18203 4.21055C7.15672 4.21896 7.13399 4.23372 7.116 4.25341C7.09801 4.2731 7.08535 4.29706 7.07925 4.32302C7.07314 4.34899 7.07377 4.37608 7.0811 4.40172C7.08842 4.42737 7.10219 4.45071 7.12109 4.46953L8.9664 6.31484C8.98557 6.33405 9.00941 6.34793 9.03558 6.35512C9.06174 6.36231 9.08933 6.36257 9.11562 6.35586C9.74111 6.20343 10.3953 6.2146 11.0152 6.38829C11.6352 6.56199 12.1999 6.89235 12.6551 7.34758C13.1104 7.80281 13.4407 8.36758 13.6144 8.9875C13.7881 9.60742 13.7993 10.2616 13.6469 10.8871C13.6402 10.9133 13.6405 10.9409 13.6477 10.9669C13.6549 10.993 13.6687 11.0168 13.6879 11.0359L16.3422 13.6922C16.3698 13.7199 16.4068 13.7362 16.4458 13.7379C16.4849 13.7396 16.5232 13.7267 16.5531 13.7016C17.5748 12.8307 18.4602 11.8116 19.1797 10.6781ZM10 13.75C9.43232 13.75 8.87204 13.6212 8.36141 13.3732C7.85078 13.1251 7.40312 12.7644 7.05219 12.3182C6.70125 11.872 6.4562 11.352 6.33552 10.7973C6.21483 10.2426 6.22165 9.66769 6.35547 9.11601C6.3621 9.08978 6.36181 9.06227 6.35462 9.03618C6.34743 9.01009 6.33359 8.98632 6.31445 8.96719L3.70351 6.35508C3.67583 6.32736 3.63874 6.31105 3.5996 6.30939C3.56046 6.30773 3.52212 6.32083 3.49219 6.34609C2.53945 7.15898 1.65625 8.14805 0.848826 9.30391C0.707492 9.50676 0.629654 9.74705 0.625202 9.99424C0.620751 10.2414 0.689887 10.4844 0.823826 10.6922C1.85547 12.3066 3.18281 13.6664 4.66289 14.6238C6.33047 15.7031 8.12187 16.25 9.9875 16.25C10.951 16.2474 11.9082 16.0952 12.825 15.7988C12.8505 15.7907 12.8735 15.7761 12.8918 15.7565C12.9101 15.7368 12.923 15.7129 12.9293 15.6868C12.9356 15.6608 12.9351 15.6335 12.9279 15.6077C12.9206 15.5819 12.9069 15.5584 12.8879 15.5395L11.0336 13.6855C11.0145 13.6664 10.9907 13.6526 10.9646 13.6454C10.9385 13.6382 10.911 13.6379 10.8848 13.6445C10.5951 13.7147 10.2981 13.7501 10 13.75Z" fill="#8D9496"/>
</svg>
