<svg width="20" height="20" viewBox="0 0 20 20" fill="none" xmlns="http://www.w3.org/2000/svg">
<path d="M10 12.5C11.3807 12.5 12.5 11.3807 12.5 10C12.5 8.61929 11.3807 7.5 10 7.5C8.61929 7.5 7.5 8.61929 7.5 10C7.5 11.3807 8.61929 12.5 10 12.5Z" fill="#8D9496"/>
<path d="M19.1732 9.32031C18.1396 7.72187 16.7986 6.36406 15.2955 5.39336C13.6326 4.31836 11.7967 3.75 9.98652 3.75C8.32558 3.75 6.69238 4.22461 5.13222 5.16055C3.54121 6.11484 2.0998 7.50898 0.847849 9.30391C0.706515 9.50676 0.628677 9.74705 0.624226 9.99424C0.619774 10.2414 0.688911 10.4844 0.822849 10.6922C1.85449 12.3066 3.18222 13.6664 4.66191 14.6238C6.32793 15.7031 8.1209 16.25 9.98652 16.25C11.8111 16.25 13.651 15.6863 15.3068 14.6203C16.8092 13.6527 18.1475 12.2898 19.1771 10.6781C19.3065 10.4751 19.3748 10.2393 19.3741 9.99865C19.3735 9.75797 19.3037 9.52255 19.1732 9.32031ZM9.9998 13.75C9.25812 13.75 8.5331 13.5301 7.91641 13.118C7.29973 12.706 6.81908 12.1203 6.53525 11.4351C6.25143 10.7498 6.17716 9.99584 6.32186 9.26841C6.46655 8.54098 6.8237 7.8728 7.34815 7.34835C7.8726 6.8239 8.54078 6.46675 9.26821 6.32206C9.99564 6.17736 10.7496 6.25162 11.4349 6.53545C12.1201 6.81928 12.7058 7.29993 13.1178 7.91661C13.5299 8.5333 13.7498 9.25832 13.7498 10C13.7487 10.9942 13.3532 11.9474 12.6502 12.6504C11.9472 13.3534 10.994 13.7489 9.9998 13.75Z" fill="#8D9496"/>
</svg>
