<svg width="20" height="20" viewBox="0 0 20 20" fill="none" xmlns="http://www.w3.org/2000/svg">
<path d="M8.17789 5.7293C8.17789 6.3543 8.17789 6.96006 8.375 7.52737C6.30288 9.96005 0.831731 16.3879 0.322115 16.8783C0.220831 16.9692 0.139806 17.0803 0.0843096 17.2046C0.0288131 17.3288 8.72422e-05 17.4634 0 17.5994C0 18.0081 0.25 18.4023 0.461538 18.6235C0.778846 18.9552 2.13462 20.21 2.38462 19.9696C3.125 19.2485 3.27404 19.0562 3.57692 18.7581C4.03365 18.311 3.52885 17.3975 3.6875 17.0273C3.84615 16.6571 4.01442 16.585 4.28846 16.5273C4.5625 16.4696 5.04808 16.6667 5.42788 16.6716C5.82692 16.6764 6.04327 16.5081 6.34135 16.2292C6.58173 16.0081 6.75481 15.8014 6.75962 15.4793C6.76923 15.0466 6.14423 14.4745 6.61058 14.0177C7.07692 13.561 7.75 14.3158 8.24519 14.2581C8.74039 14.2004 9.34135 13.5129 9.40385 13.2196C9.46635 12.9264 8.84135 12.1716 8.9375 11.7437C8.97115 11.5995 9.26442 11.2629 9.48558 11.2149C9.70673 11.1668 10.6875 11.5466 10.9087 11.4985C11.1779 11.4408 11.4904 11.1572 11.7452 10.9985C12.4904 11.3206 13.1683 11.4504 14.0385 11.4504C17.3317 11.4504 20 8.88313 20 5.71968C20 2.55624 17.3317 0 14.0385 0C10.7452 0 8.17789 2.56585 8.17789 5.7293ZM16.9231 4.61536C16.9231 4.91964 16.8328 5.21708 16.6638 5.47008C16.4948 5.72308 16.2545 5.92027 15.9734 6.03671C15.6922 6.15315 15.3829 6.18362 15.0845 6.12426C14.786 6.06489 14.5119 5.91837 14.2968 5.70321C14.0816 5.48806 13.9351 5.21393 13.8757 4.9155C13.8164 4.61707 13.8468 4.30774 13.9633 4.02662C14.0797 3.74551 14.2769 3.50523 14.5299 3.33618C14.7829 3.16714 15.0803 3.07691 15.3846 3.07691C15.7926 3.07691 16.184 3.239 16.4725 3.52751C16.761 3.81603 16.9231 4.20734 16.9231 4.61536Z" fill="#8D9496"/>
</svg>
